<svg width="274" height="317" viewBox="0 0 274 317" fill="none" xmlns="http://www.w3.org/2000/svg">
<g clip-path="url(#clip0_101_1500)">
<path d="M215.696 103.401C177.045 104.442 173.386 133.174 136.833 132.654C100.279 132.654 96.0998 104.978 57.969 103.401C25.594 102.36 0 128.475 0 159.809C0 191.143 26.1144 216.217 57.969 216.217C91.9209 216.217 97.1406 185.923 136.833 185.403C177.045 185.403 181.744 216.217 215.696 216.217C249.648 216.217 273.665 191.143 273.665 159.809C273.665 128.475 247.551 102.36 215.696 103.401Z" fill="#F8F8F8"/>
<path d="M136.833 107.58C166.54 107.58 190.623 83.4974 190.623 53.79C190.623 24.0826 166.54 0 136.833 0C107.126 0 83.043 24.0826 83.043 53.79C83.043 83.4974 107.126 107.58 136.833 107.58Z" fill="#F8F8F8"/>
<path d="M136.833 317C166.54 317 190.623 292.917 190.623 263.21C190.623 233.503 166.54 209.42 136.833 209.42C107.126 209.42 83.043 233.503 83.043 263.21C83.043 292.917 107.126 317 136.833 317Z" fill="#F8F8F8"/>
</g>
<defs>
<clipPath id="clip0_101_1500">
<rect width="274" height="317" fill="white"/>
</clipPath>
</defs>
</svg>
