<svg width="192" height="192" viewBox="0 0 192 192" fill="none" xmlns="http://www.w3.org/2000/svg">
<mask id="path-1-inside-1_121_27" fill="white">
<path d="M0 96C0 42.9807 42.9807 0 96 0C149.019 0 192 42.9807 192 96C192 149.019 149.019 192 96 192C42.9807 192 0 149.019 0 96Z"/>
</mask>
<path d="M0 96C0 42.9807 42.9807 0 96 0C149.019 0 192 42.9807 192 96C192 149.019 149.019 192 96 192C42.9807 192 0 149.019 0 96Z" fill="url(#paint0_linear_121_27)"/>
<path d="M0 96M192 96M192 96M0 96M96 0M192 96M96 192M0 96M96 192V190.82C43.6325 190.82 1.18025 148.367 1.18025 96H0H-1.18025C-1.18025 149.671 42.3288 193.18 96 193.18V192ZM192 96H190.82C190.82 148.367 148.367 190.82 96 190.82V192V193.18C149.671 193.18 193.18 149.671 193.18 96H192ZM96 0V1.18025C148.367 1.18025 190.82 43.6325 190.82 96H192H193.18C193.18 42.3288 149.671 -1.18025 96 -1.18025V0ZM96 0V-1.18025C42.3288 -1.18025 -1.18025 42.3288 -1.18025 96H0H1.18025C1.18025 43.6325 43.6325 1.18025 96 1.18025V0Z" fill="white" fill-opacity="0.1" mask="url(#path-1-inside-1_121_27)"/>
<path d="M31.9993 96C31.9993 60.6584 60.6493 32.0084 95.9908 32.0084C131.332 32.0084 159.982 60.6584 159.982 96C159.982 131.341 131.332 159.991 95.9908 159.991C60.6493 159.991 31.9993 131.341 31.9993 96Z" fill="url(#paint1_linear_121_27)"/>
<g opacity="0.957007">
<path d="M90.4902 105.332C90.2522 104.409 89.7712 103.567 89.0974 102.893C88.4236 102.22 87.5815 101.739 86.6588 101.501L70.3009 97.2825C70.0218 97.2033 69.7762 97.0352 69.6013 96.8037C69.4264 96.5723 69.3318 96.2901 69.3318 96C69.3318 95.7099 69.4264 95.4277 69.6013 95.1962C69.7762 94.9648 70.0218 94.7967 70.3009 94.7175L86.6588 90.4967C87.5812 90.2589 88.423 89.7783 89.0968 89.105C89.7706 88.4317 90.2518 87.5901 90.4902 86.6679L94.7084 70.3101C94.7868 70.0299 94.9547 69.783 95.1865 69.6072C95.4183 69.4314 95.7012 69.3362 95.9922 69.3362C96.2831 69.3362 96.5661 69.4314 96.7979 69.6072C97.0297 69.783 97.1976 70.0299 97.276 70.3101L101.491 86.6679C101.729 87.5906 102.21 88.4327 102.884 89.1065C103.558 89.7804 104.4 90.2613 105.323 90.4994L121.681 94.7148C121.962 94.7924 122.21 94.9601 122.387 95.1923C122.564 95.4244 122.659 95.7082 122.659 96C122.659 96.2918 122.564 96.5755 122.387 96.8077C122.21 97.0398 121.962 97.2076 121.681 97.2851L105.323 101.501C104.4 101.739 103.558 102.22 102.884 102.893C102.21 103.567 101.729 104.409 101.491 105.332L97.2733 121.69C97.1949 121.97 97.027 122.217 96.7952 122.393C96.5634 122.569 96.2805 122.664 95.9895 122.664C95.6986 122.664 95.4156 122.569 95.1838 122.393C94.952 122.217 94.7841 121.97 94.7057 121.69L90.4902 105.332Z" stroke="white" stroke-width="5.33263" stroke-linecap="round" stroke-linejoin="round"/>
<path d="M117.321 72.0032V82.6684" stroke="white" stroke-width="5.33263" stroke-linecap="round" stroke-linejoin="round"/>
<path d="M122.654 77.3358H111.989" stroke="white" stroke-width="5.33263" stroke-linecap="round" stroke-linejoin="round"/>
<path d="M74.6604 109.332V114.664" stroke="white" stroke-width="5.33263" stroke-linecap="round" stroke-linejoin="round"/>
<path d="M77.3268 111.998H71.9941" stroke="white" stroke-width="5.33263" stroke-linecap="round" stroke-linejoin="round"/>
</g>
<defs>
<linearGradient id="paint0_linear_121_27" x1="0" y1="0" x2="192" y2="192" gradientUnits="userSpaceOnUse">
<stop stop-color="#0092F7" stop-opacity="0.2"/>
<stop offset="1" stop-color="#C34296" stop-opacity="0.2"/>
</linearGradient>
<linearGradient id="paint1_linear_121_27" x1="95.9908" y1="32.0084" x2="95.9908" y2="159.991" gradientUnits="userSpaceOnUse">
<stop stop-color="#0092F7"/>
<stop offset="1" stop-color="#C34296"/>
</linearGradient>
</defs>
</svg>
